
                <svg xmlns="http://www.w3.org/2000/svg" xmlns:xlink="http://www.w3.org/1999/xlink" width="515" height="487" shape-rendering="optimizeSpeed">
                
            <g>
                <rect x="50" y="80" width="440" height="30" style="fill:#a5d6a7; stroke:#444; stroke-width:1"></rect>
                    
                <line x1="60" y1="80" x2="60" y2="110" style="fill:#a5d6a7; stroke:#444; stroke-width:1"></line>
                <line x1="480" y1="80" x2="480" y2="110" style="fill:#a5d6a7; stroke:#444; stroke-width:1"></line>
             
                <title>ConditionWrapper = ({
  condition,
  wrapper,
  wrapperFalse,
  children
}) =&gt;</title>
            <text x="75" y="100" font-family="monospace" font-size="13" fill="#222">
                <tspan x="75" y="100">ConditionWrapper = ({
  condition,
  wrapper,
  wr...</tspan>
            </text>
                
            </g><g>
            <rect x="117" y="143.5" width="145.8" height="30" rx="3" ry="3" style="fill:#ce93d8; stroke:#444; stroke-width:1"></rect>                
            <polygon points="87,158.5 117,128.5 147,158.5 117,188.5" style="fill:#ce93d8; stroke:#444; stroke-width:1"></polygon>
            <title>(condition)</title>
            <text x="162" y="163.5" font-family="monospace" font-size="13" fill="#222">
                <tspan x="162" y="163.5">(condition)</tspan>
            </text>
            
            <text x="109.2" y="163.5" font-family="monospace" font-size="13" fill="#222">if</text> <text x="124.8" y="190.45" font-family="monospace" font-size="13" fill="#222">+</text> 
        </g>
            <g>
                <rect x="137" y="198.5" width="217.2" height="30" rx="3" ry="3" style="fill:#90caf9; stroke:#444; stroke-width:1"></rect>
                
                <line x1="354.2" y1="208.5" x2="359.2" y2="208.5" style="fill:#a5d6a7; stroke:#444; stroke-width:1"></line>
                
                <line x1="354.2" y1="218.5" x2="359.2" y2="218.5" style="fill:#a5d6a7; stroke:#444; stroke-width:1"></line>

                <path d="M359.2, 202.5 L375.2, 213.5 L359.2, 224.5 Z" fill="#a5d6a7" stroke="#444" stroke-width="1"></path>
                             
                <title>return wrapper(children)</title>
            <text x="152" y="218.5" font-family="monospace" font-size="13" fill="#222">
                <tspan x="152" y="218.5">return wrapper(children)</tspan>
            </text>
                
            </g><g>
            <rect x="117" y="263.5" width="340.8" height="30" rx="3" ry="3" style="fill:#ce93d8; stroke:#444; stroke-width:1"></rect>                
            <polygon points="87,278.5 117,248.5 147,278.5 117,308.5" style="fill:#ce93d8; stroke:#444; stroke-width:1"></polygon>
            <title>(typeof wrapperFalse === 'function')</title>
            <text x="162" y="283.5" font-family="monospace" font-size="13" fill="#222">
                <tspan x="162" y="283.5">(typeof wrapperFalse === 'function')</tspan>
            </text>
            
            <text x="109.2" y="283.5" font-family="monospace" font-size="13" fill="#222">if</text> <text x="124.8" y="310.45" font-family="monospace" font-size="13" fill="#222">+</text> 
        </g>
            <g>
                <rect x="137" y="318.5" width="256.2" height="30" rx="3" ry="3" style="fill:#90caf9; stroke:#444; stroke-width:1"></rect>
                
                <line x1="393.2" y1="328.5" x2="398.2" y2="328.5" style="fill:#a5d6a7; stroke:#444; stroke-width:1"></line>
                
                <line x1="393.2" y1="338.5" x2="398.2" y2="338.5" style="fill:#a5d6a7; stroke:#444; stroke-width:1"></line>

                <path d="M398.2, 322.5 L414.2, 333.5 L398.2, 344.5 Z" fill="#a5d6a7" stroke="#444" stroke-width="1"></path>
                             
                <title>return wrapperFalse(children)</title>
            <text x="152" y="338.5" font-family="monospace" font-size="13" fill="#222">
                <tspan x="152" y="338.5">return wrapperFalse(children)</tspan>
            </text>
                
            </g>
            <g>
                <rect x="87" y="368.5" width="147" height="30" rx="3" ry="3" style="fill:#90caf9; stroke:#444; stroke-width:1"></rect>
                
                <line x1="234" y1="378.5" x2="239" y2="378.5" style="fill:#a5d6a7; stroke:#444; stroke-width:1"></line>
                
                <line x1="234" y1="388.5" x2="239" y2="388.5" style="fill:#a5d6a7; stroke:#444; stroke-width:1"></line>

                <path d="M239, 372.5 L255, 383.5 L239, 394.5 Z" fill="#a5d6a7" stroke="#444" stroke-width="1"></path>
                             
                <title>return children</title>
            <text x="102" y="388.5" font-family="monospace" font-size="13" fill="#222">
                <tspan x="102" y="388.5">return children</tspan>
            </text>
                
            </g>
            <g>
                <rect x="50" y="432" width="279.6" height="30" rx="3" ry="3" style="fill:#81d4fa; stroke:#444; stroke-width:1"></rect>
                
                <line x1="329.6" y1="442" x2="334.6" y2="442" style="fill:#fff; stroke:#444; stroke-width:1"></line>
                
                <line x1="329.6" y1="452" x2="334.6" y2="452" style="fill:#fff; stroke:#444; stroke-width:1"></line>

                <path d="M334.6, 433 L354.6, 447 L334.6, 461 Z" fill="#fff" stroke="#444" stroke-width="1"></path>
                             
                <title>export default  ConditionWrapper</title>
            <text x="65" y="452" font-family="monospace" font-size="13" fill="#222">
                <tspan x="65" y="452">export default  ConditionWrapper</tspan>
            </text>
                
            </g>
            <g>
               <rect x="25" y="13.75" width="216.6" height="24" style="fill:#fff59d; stroke:#444; stroke-width:1"></rect>
               <circle cx="25" cy="25" r="15" style="fill:#fff59d; stroke:#444; stroke-width:1"></circle>
               <title>Program: source module</title>
            <text x="55" y="30" font-family="monospace" font-size="13" fill="#222">
                <tspan x="55" y="30">Program: source module</tspan>
            </text>
            </g>
            <g>
               <path d="M25, 40 L25 91 Q25 95
                29 95
                L42 95 " style="fill:none; stroke:#444; stroke-width:1"></path>
               <path d="M42, 92 L50, 95 L42, 98 Z" fill="#333"></path>
            </g>
            <g>
               <path d="M68.5, 110 L68.5 154.5 Q68.5 158.5
                72.5 158.5
                L79 158.5 " style="fill:none; stroke:#444; stroke-width:1"></path>
               <path d="M79, 155.5 L87, 158.5 L79, 161.5 Z" fill="#333"></path>
            </g>
            <g>
               <path d="M117, 188.5 L117 209.5 Q117 213.5
                121 213.5
                L129 213.5 " style="fill:none; stroke:#444; stroke-width:1"></path>
               <path d="M129, 210.5 L137, 213.5 L129, 216.5 Z" fill="#333"></path>
            </g>
            <g>
               <path d="M68.5, 110 L68.5 274.5 Q68.5 278.5
                72.5 278.5
                L79 278.5 " style="fill:none; stroke:#444; stroke-width:1"></path>
               <path d="M79, 275.5 L87, 278.5 L79, 281.5 Z" fill="#333"></path>
            </g>
            <g>
               <path d="M117, 308.5 L117 329.5 Q117 333.5
                121 333.5
                L129 333.5 " style="fill:none; stroke:#444; stroke-width:1"></path>
               <path d="M129, 330.5 L137, 333.5 L129, 336.5 Z" fill="#333"></path>
            </g>
            <g>
               <path d="M68.5, 110 L68.5 379.5 Q68.5 383.5
                72.5 383.5
                L79 383.5 " style="fill:none; stroke:#444; stroke-width:1"></path>
               <path d="M79, 380.5 L87, 383.5 L79, 386.5 Z" fill="#333"></path>
            </g>
            <g>
               <path d="M25, 40 L25 443 Q25 447
                29 447
                L42 447 " style="fill:none; stroke:#444; stroke-width:1"></path>
               <path d="M42, 444 L50, 447 L42, 450 Z" fill="#333"></path>
            </g>
            </svg>